<?xml version="1.0" standalone="no"?>
<!DOCTYPE svg PUBLIC "-//W3C//DTD SVG 20010904//EN"
 "http://www.w3.org/TR/2001/REC-SVG-20010904/DTD/svg10.dtd">
<svg version="1.0" xmlns="http://www.w3.org/2000/svg"
 width="256.000000pt" height="256.000000pt" viewBox="0 0 256.000000 256.000000"
 preserveAspectRatio="xMidYMid meet">
<metadata>
Created by potrace 1.11, written by Peter Selinger 2001-2013
</metadata>
<g transform="translate(0.000000,256.000000) scale(0.100000,-0.100000)"
fill="#000000" stroke="none">
<path d="M0 1280 l0 -1280 1280 0 1280 0 0 1280 0 1280 -1280 0 -1280 0 0
-1280z m1422 484 l3 -566 43 54 c23 29 140 157 260 285 l217 231 139 1 139 1
-20 -22 c-11 -13 -126 -137 -256 -276 l-235 -253 284 -382 285 -382 -122 -3
c-68 -1 -128 -1 -135 2 -6 2 -113 140 -238 305 l-226 301 -70 -73 -69 -72 -1
-232 0 -233 -115 0 -115 0 0 940 0 940 115 0 115 0 2 -566z m-464 30 c20 -6
22 -13 22 -68 l0 -61 -98 0 c-90 0 -103 -3 -164 -33 -78 -38 -128 -90 -169
-177 l-29 -60 0 -472 0 -473 -75 0 -75 0 0 660 0 660 69 0 69 0 7 -96 7 -96
20 34 c26 44 85 104 126 130 74 46 216 71 290 52z"/>
</g>
</svg>
